# xmcd
#
# Track frame offsets:
# 150
# 12481
# 29218
# 48230
# 62565
# 72851
# 83898
# 104101
# 116591
# 127846
# 150958
# 170598
# 181669
# 194375
# 208822
# 223016
# 236466
#
# Disc length: 3369 seconds
#
#
# Revision: 0
# Processed by: cddbd v1.5.2PL0 Copyright (c) Steve Scherf et al.
# Submitted via: FreeRIP 2.944 
#
DISCID=ee0d2711
DTITLE=POP IN LOVE VOL. 4 - VÁRIOS - POP IN LOVE VOL 4
DYEAR=1998
DGENRE=FLACH BACK
TTITLE0=CRISTYAN_DON'T SAY GOODBYE
TTITLE1=DAVE MACLEAN_ME AND YOU
TTITLE2=THE HOLLIES_HE AIN'T HEAVY HES MY BROTHER
TTITLE3=PHOLHAS_SHE MADE ME CRY
TTITLE4=LUIS ARMSTRONG_WHAT A WONDERFUL WORLD
TTITLE5=10 CC_I'M NOT IN LOVE
TTITLE6=THE ANIMALS_THE HOUSE OF RISING SUN
TTITLE7=LULU_TO SER WITH LOVE
TTITLE8=BRAD_IF
TTITLE9=ALICE COOPER_YOU AND ME
TTITLE10=CHRIS DE BURG_FLAING
TTITLE11=BREAD_BABY I'M A WANT YOU
TTITLE12=ALICE COOPER_ I NEVER CRY
TTITLE13=JAKY JAMES_TAKE MY HEART
TTITLE14=DAVE MACLEAN_WE SAY GOOBDYE
TTITLE15=GILBERT SULIVAN_CLAIR
TTITLE16=TERRY WINTER_OUR LOVE DREANS
EXTD=
EXTT0=
EXTT1=
EXTT2=
EXTT3=
EXTT4=
EXTT5=
EXTT6=
EXTT7=
EXTT8=
EXTT9=
EXTT10=
EXTT11=
EXTT12=
EXTT13=
EXTT14=
EXTT15=
EXTT16=
PLAYORDER=
